<svg width="263" height="51" viewBox="0 0 263 51" fill="none" xmlns="http://www.w3.org/2000/svg">
<path d="M31.7109 32.4766H22.8438L21.0078 39H18.3906L26.5938 10.9922H27.9219L36.1641 39H33.5664L31.7109 32.4766ZM23.5273 30.0742H31.0469L27.3555 17.1641L27.2773 16.1289L27.1992 17.1641L23.5273 30.0742ZM39.7578 39V10.9922H42.2773V39H39.7578ZM73.6836 21.3633C73.6836 22.3138 73.5013 23.2057 73.1367 24.0391C72.7852 24.8724 72.2969 25.6016 71.6719 26.2266C71.0469 26.8516 70.3112 27.3464 69.4648 27.7109C68.6315 28.0625 67.7396 28.2383 66.7891 28.2383H60.4414V39H57.9219V10.9922H66.7891C67.7396 10.9922 68.6315 11.1745 69.4648 11.5391C70.3112 11.8906 71.0469 12.3789 71.6719 13.0039C72.2969 13.6289 72.7852 14.3646 73.1367 15.2109C73.5013 16.0443 73.6836 16.9362 73.6836 17.8867V21.3633ZM71.1641 17.8867C71.1641 17.2617 71.0469 16.6823 70.8125 16.1484C70.5781 15.6016 70.2526 15.1263 69.8359 14.7227C69.4323 14.306 68.957 13.9805 68.4102 13.7461C67.8763 13.5117 67.2969 13.3945 66.6719 13.3945H60.4414V25.8359H66.6719C67.2969 25.8359 67.8763 25.7188 68.4102 25.4844C68.957 25.25 69.4323 24.931 69.8359 24.5273C70.2526 24.1237 70.5781 23.6549 70.8125 23.1211C71.0469 22.5742 71.1641 21.9883 71.1641 21.3633V17.8867ZM93.8594 32.5156C93.8594 33.4661 93.6771 34.3581 93.3125 35.1914C92.9609 36.0247 92.4727 36.7539 91.8477 37.3789C91.2227 38.0039 90.4935 38.4987 89.6602 38.8633C88.8268 39.2148 87.9349 39.3906 86.9844 39.3906H84.9922C84.0417 39.3906 83.1432 39.2148 82.2969 38.8633C81.4635 38.4987 80.7344 38.0039 80.1094 37.3789C79.4844 36.7539 78.9896 36.0247 78.625 35.1914C78.2734 34.3581 78.0977 33.4661 78.0977 32.5156V17.4766C78.0977 16.526 78.2734 15.6341 78.625 14.8008C78.9896 13.9674 79.4844 13.2383 80.1094 12.6133C80.7344 11.9883 81.4635 11.5 82.2969 11.1484C83.1432 10.7839 84.0417 10.6016 84.9922 10.6016H86.9844C87.9349 10.6016 88.8268 10.7839 89.6602 11.1484C90.4935 11.5 91.2227 11.9883 91.8477 12.6133C92.4727 13.2383 92.9609 13.9674 93.3125 14.8008C93.6771 15.6341 93.8594 16.526 93.8594 17.4766V32.5156ZM91.3398 17.4766C91.3398 16.8516 91.2227 16.2721 90.9883 15.7383C90.7539 15.1914 90.4349 14.7161 90.0312 14.3125C89.6276 13.9089 89.1523 13.5898 88.6055 13.3555C88.0716 13.1211 87.4922 13.0039 86.8672 13.0039H85.1094C84.4844 13.0039 83.8984 13.1211 83.3516 13.3555C82.8177 13.5898 82.3424 13.9089 81.9258 14.3125C81.5221 14.7161 81.2031 15.1914 80.9688 15.7383C80.7344 16.2721 80.6172 16.8516 80.6172 17.4766V32.5156C80.6172 33.1406 80.7344 33.7266 80.9688 34.2734C81.2031 34.8073 81.5221 35.2826 81.9258 35.6992C82.3424 36.1029 82.8177 36.4219 83.3516 36.6562C83.8984 36.8906 84.4844 37.0078 85.1094 37.0078H86.8672C87.4922 37.0078 88.0716 36.8906 88.6055 36.6562C89.1523 36.4219 89.6276 36.1029 90.0312 35.6992C90.4349 35.2826 90.7539 34.8073 90.9883 34.2734C91.2227 33.7266 91.3398 33.1406 91.3398 32.5156V17.4766ZM118.586 39H117.277L111.828 17.9258L111.75 16.832L111.633 17.9258L106.223 39H104.914L97.4727 10.9922H99.9922L105.48 32.2812L105.559 33.3164L105.637 32.2812L111.027 10.9922H112.434L117.824 32.2812L117.902 33.3164L118 32.2812L123.469 10.9922H125.988L118.586 39ZM129.992 39V10.9922H145.754V13.3945H132.512V23.8047H143.234V26.207H132.512V36.5977H145.754V39H129.992ZM163.742 39L156.145 27.0469H152.688V39H150.168V10.9922H159.055C160.005 10.9922 160.897 11.1745 161.73 11.5391C162.564 11.8906 163.293 12.3789 163.918 13.0039C164.543 13.6289 165.031 14.3646 165.383 15.2109C165.747 16.0443 165.93 16.9362 165.93 17.8867V20.1523C165.93 21.1029 165.747 22.0013 165.383 22.8477C165.031 23.681 164.543 24.4102 163.918 25.0352C163.293 25.6602 162.564 26.1549 161.73 26.5195C160.897 26.8711 160.005 27.0469 159.055 27.0469L166.652 39H163.742ZM163.41 17.8867C163.41 17.2617 163.293 16.6823 163.059 16.1484C162.824 15.6016 162.505 15.1263 162.102 14.7227C161.698 14.306 161.223 13.9805 160.676 13.7461C160.142 13.5117 159.562 13.3945 158.938 13.3945H152.688V24.6445H158.938C159.562 24.6445 160.142 24.5273 160.676 24.293C161.223 24.0586 161.698 23.7396 162.102 23.3359C162.505 22.9193 162.824 22.444 163.059 21.9102C163.293 21.3633 163.41 20.7773 163.41 20.1523V17.8867ZM178.273 13.3945V39H175.754V13.3945H169.074V10.9922H184.953V13.3945H178.273ZM188.977 39V10.9922H204.738V13.3945H191.496V23.8047H202.219V26.207H191.496V36.5977H204.738V39H188.977ZM221.809 39L216.047 27.3594L210.285 39H207.551L214.68 24.6055L207.961 10.9922H210.676L216.047 21.832L221.398 10.9922H224.113L217.395 24.6055L224.523 39H221.809ZM235.734 13.3945V39H233.215V13.3945H226.535V10.9922H242.414V13.3945H235.734Z" fill="#3D65C2"/>
<line y1="50" x2="263" y2="50" stroke="#3D65C2" stroke-width="2"/>
</svg>
